<svg height="1440" viewBox="0 0 2560 1440" width="2560" xmlns="http://www.w3.org/2000/svg"><path d="m251.2 904.2q-53.1 0-87.8-17-34-17.7-50.2-45.3-15.6-27.7-15.6-56 0-25.5 11.3-47.4 12-22.7 33.3-36.1 21.2-14.2 51-14.2 23.3 0 41.7 9.2 19.2 8.5 30.5 24.1 11.3 14.9 11.3 34.7 0 3.5-.7 7.8 0 4.2-1.4 8.5-5.7-2.2-11.3-2.9-5-1.4-10-1.4-16.9 0-26.9 12.1-9.2 12-9.2 28.3 0 17.7 12.8 32.5 12.7 14.9 40.3 14.9 15.6 0 29.1-6.4 14.1-6.3 23.3-21.2 9.2-14.9 9.2-38.2 0-27.6-14.8-48.2-14.2-20.5-36.9-37.5-21.9-17.7-45.3-35.4-19.8-14.9-36.8-31.9-17-16.9-27.6-38.2-10.6-21.9-10.6-49.5 0-34.7 17.7-60.9 17.7-26.2 46.7-43.9 29.8-17.7 65.9-26.9 36.1-9.2 72.9-9.2 39.6 0 72.9 7.7 33.3 7.1 53.8 25.5 20.5 17.7 20.5 48.2 0 26.2-12.7 43.2-12.7 17-32.6 25.5-19.1 7.7-40.3 7.7-10.6 0-21.3-1.4-10.6-2.1-19.8-5.6 5.7-14.2 8.5-26.9 2.8-13.5 2.8-25.5 0-23.4-9.9-38.3-9.2-15.5-36.1-15.5-19.1 0-33.3 13.4-14.1 13.5-14.1 36.8 0 21.3 12.7 37.6 13.5 15.5 33.3 29.7 20.5 14.2 43.2 29.7 21.2 15.6 40.4 34 19.8 18.4 31.8 43.2 12 24.1 12 58.1 0 41.7-20.5 73.6-19.8 31.1-53.1 53.1-32.6 21.2-72.2 31.8-38.9 10-77.9 10zm358.3 127.4q-30.5 0-48.9-15.6-18.4-16.3-18.4-46.7 0-22 9.9-39.7 9.9-18.4 26.2-33.9 17-15.6 36.8-28.4l-58.7 2.9q-1.4-58.1-3.6-102-1.4-44.6-4.2-82.1-2.9-37.5-7.1-72.2-3.5-32.6-10.6-48.9-6.4-16.3-18.4-24 18.4-15.6 38.2-20.6 19.8-5.6 40.4-5.6 33.2 0 50.9 11.3 17.7 11.3 25.5 33.3 7.8 21.2 9.9 54.5.7 8.5.7 26.2 0 17.7 0 37.5.8 19.1.8 32.6l-.8 97.7q24.1-31.2 42.5-68.7 19.1-37.5 30.5-77.9 11.3-40.3 11.3-80 0-9.2-1.4-19.1-.7-10.6-3.6-21.2 10.7-11.4 26.9-18.5 16.3-7.7 37.6-7.7 16.3 0 30.4 5.6 14.9 5.7 23.4 18.4 9.2 12.8 9.2 35.4 0 23.4-11.3 52.4-10.7 28.3-29.1 58.1-17.7 29-39.6 57.3-22 28.3-43.9 52.4-21.3 24.1-38.3 41.8-24 22.6-41 44.6-16.3 21.9-16.3 54.5 0 18.4 9.2 35.4 9.9 17 24.8 28.3-17.7 17-41.8 24.8-23.4 7.8-48.1 7.8zm562.8-127.4q-35.4 0-58.7-17.7-22.7-18.4-22.7-55.3 0-15.5 4.3-38.2 4.2-22.7 10.6-48.1 6.3-26.2 12-51.7 5.7-26.2 9.9-49.6 4.3-23.3 4.3-39.6 0-13.5-5-24.1-4.2-10.6-19.8-10.6-19.1 0-31.9 17-12 17-19.8 41.7-7.1 24.1-12 46.8l-41.8 215.2-141.6 14.2 73.6-375.3 115.4-14.1-11.3 69.3q19.8-38.2 53.8-53.8 34-15.5 76.5-15.5 46.7 0 73.6 19.1 27.6 19.1 27.6 63.7 0 17.7-4.2 40.4-4.3 22.6-9.9 47.4-5.7 24.1-11.4 48.1-5.6 23.4-9.9 43.9-3.5 19.9-3.5 34 0 17 7.1 27.6 7.8 10.6 26.2 12.8-8.5 26.9-35.4 39.6-26.9 12.8-56 12.8zm241.5 0q-39.7 0-65.9-17-25.5-17.7-38.2-48.9-12.1-31.1-12.1-73.6 0-53.8 16.3-99.1 17-45.3 46.8-79.3 29.7-34 69.3-52.4 39.7-19.1 85-19.1 36.8 0 75.8 13.4l111.1-13.4-51 269.7q-.7 5.7-2.1 14.2-1.4 8.5-1.4 15.5 0 13.5 7.8 24.8 7.8 11.4 25.5 12.8-5.7 17.7-20.6 29.7-14.1 11.3-33.2 17-18.4 5.7-36.1 5.7-23.4 0-43.2-10-19.9-9.9-27.6-30.4-18.5 18.4-45.4 29.7-26.2 10.7-60.8 10.7zm44.6-45.4q18.4 0 30.4-14.1 12.7-14.9 19.1-35.4 7.1-20.5 9.9-39l35.4-200.3q-9.2-6.4-19.1-9.2-9.2-3.6-17-3.6-19.8 0-34.7 17.7-14.8 17-25.5 46.1-9.9 29-16.2 63-5.7 33.2-8.5 65.8-2.2 32.6-2.2 57.4 0 18.4 5 35.4 5 16.2 23.4 16.2zm378 172.8q-29.7 0-58.7-2.1-28.4-2.9-51.7-9.2-22.7-6.4-36.1-19.9-13.5-13.4-12.8-35.4.7-27.6 21.3-42.4 21.2-15.6 53.8-15.6 24.8 0 41.8 8.5 16.9 7.8 26.1 19.1-8.4 6.4-11.3 12.7-2.1 6.4-2.1 13.5 0 16.3 14.2 23.4 14.1 6.3 39.6 6.3 19.1 0 36.1-6.3 17-6.4 27.6-19.9 10.6-13.4 11.4-33.9.7-20.6-17-25.5-17-5-56-5-44.6 0-70.8-6.4-26.2-7-37.5-20.5-11.3-14.2-12-34.7 0-27.6 16.3-48.1 16.9-21.3 38.9-36.1-27.6-10.7-43.2-33.3-15.6-22.7-15.6-57.4 0-50.2 26.2-82.8 26.9-33.3 70.1-49.6 43.9-16.2 95.6-16.2 26.2 0 42.5 3.5 17 2.8 29 6.4 12 3.5 26.2 3.5 24.8 0 36.8-14.9 12.1-14.8 12.1-35.4 0-16.9-10.7-28.3 11.4-12 24.8-17.7 13.5-5.6 27.6-5.6 19.8 0 31.9 9.9 12 9.9 12 29.7 0 22-13.4 43.9-12.8 21.2-35.4 36.8-22.7 14.9-53.8 18.4 6.3 10.6 9.9 22.7 3.5 12 3.5 26.9 0 48.8-25.5 83.5-25.5 34.7-68.7 52.4-43.1 17.7-96.2 17.7-7.8 0-16.3 0-8.5-.7-17.7-1.4-3.6 3.5-6.4 8.5-2.8 4.3-2.8 9.9 0 9.2 12.7 11.3 13.5 2.2 39.7 2.2h46.7q67.3 0 97 22.6 30.4 22 29.7 61.6-.7 37.5-21.9 65.9-20.6 27.6-54.5 46-34 18.4-73.7 27.6-39.6 9.2-79.3 9.2zm56-301.6q21.9 0 34.7-19.1 12.7-19.1 19.1-47.5 6.3-28.3 7.1-55.9-.8-21.9-7.1-38.9-6.4-17-25.5-17-15.6 0-27.6 12.7-11.4 12.1-19.9 32.6-7.7 19.8-12 42.5-3.5 21.9-2.8 42.4 0 20.6 7.1 34.7 7 13.5 26.9 13.5zm369.5 174.2q-43.9 0-77.8-15.6-34-15.6-53.8-48.2-19.2-32.5-19.2-84.2 0-46 13.5-89.2 13.4-43.2 41.8-77.2 28.3-34.7 71.5-54.5 43.9-20.5 104-20.5 31.2 0 58.1 7 27.6 7.1 44.6 26.9 17.7 19.2 17.7 55.3 0 34-19.8 60.1-19.1 25.5-59.5 40.4-39.6 14.9-100.5 18.4-8.5.7-17.7.7-9.2 0-18.4 0-.7 7.8-1.5 16.3-.7 7.8-.7 13.5 0 29.7 12.8 46 13.4 15.6 45.3 15.6 26.9 0 54.5-11.4 28.3-12 41.8-33.3 9.9 5.7 13.4 14.2 4.3 8.5 4.3 19.8 0 30.5-22 53.1-21.9 22.7-57.3 34.7-34.7 12.1-75.1 12.1zm-11.3-211q24.8 0 43.9-7.8 19.1-8.5 31.9-22 13.4-13.4 19.8-32.5 7.1-19.1 7.1-41.8-.7-17-6.4-27.6-5-10.6-19.8-10.6-12.1 0-23.4 8.5-11.3 7.8-21.2 24.7-9.9 17-18.4 44.6-7.8 27-13.5 64.5z" fill="#fff"/></svg>